<?xml version="1.0" encoding="UTF-8"?>
<svg id="Layer_1" data-name="Layer 1" xmlns="http://www.w3.org/2000/svg" viewBox="0 0 920.09 1404.12">
  <defs>
    <style>
      .cls-1 {
        fill: #c4c6e2;
        stroke-width: 24px;
      }

      .cls-1, .cls-2, .cls-3 {
        stroke: #1c3f94;
      }

      .cls-2, .cls-3 {
        fill: none;
      }

      .cls-2, .cls-4 {
        stroke-width: .85px;
      }

      .cls-5 {
        fill: #1c3f94;
      }

      .cls-3 {
        stroke-width: 27px;
      }

      .cls-6 {
        fill: #ed1c24;
      }

      .cls-4 {
        fill: #fff;
        stroke: #fff;
      }

      .cls-7 {
        fill: #fd0;
      }
    </style>
  </defs>
  <polygon class="cls-4" points="17.14 1113.29 17.14 13.5 906.97 13.5 906.97 1112.88 17.14 1113.29"/>
  <g>
    <path class="cls-5" d="M108.61,1203.37h-43.95v-22.31c0-6.48-.47-10.53-1.41-12.14-.94-1.6-3.01-2.41-6.22-2.41-3.62,0-5.92.98-6.89,2.94-.98,1.96-1.46,6.19-1.46,12.69v59.59c0,6.23.48,10.29,1.46,12.2.97,1.91,3.17,2.85,6.58,2.85s5.41-.94,6.42-2.85c1.01-1.91,1.52-6.39,1.52-13.43v-16.12h43.95v4.99c0,13.29-1.23,22.69-3.7,28.26-2.47,5.55-7.93,10.42-16.39,14.59-8.46,4.17-18.89,6.26-31.27,6.26s-23.49-1.76-31.85-5.3c-8.35-3.54-13.89-8.44-16.6-14.7-2.71-6.26-4.07-15.68-4.07-28.24v-37.48c0-9.26.42-16.19,1.25-20.82.83-4.61,3.33-9.06,7.47-13.34,4.14-4.28,9.88-7.64,17.23-10.11,7.34-2.45,15.78-3.68,25.32-3.68,12.95,0,23.63,1.91,32.05,5.7,8.42,3.79,13.96,8.53,16.6,14.21,2.65,5.66,3.96,14.48,3.96,26.46v12.2Z"/>
    <path class="cls-5" d="M218.66,1225.08h-54.61v22.74c0,4.76.46,7.82,1.36,9.19.9,1.38,2.64,2.07,5.22,2.07,3.2,0,5.34-.91,6.42-2.74,1.08-1.81,1.62-5.35,1.62-10.58v-13.87h39.98v7.77c0,6.5-.54,11.49-1.62,14.97-1.08,3.48-3.6,7.22-7.57,11.18-3.97,3.96-9,6.93-15.09,8.91-6.09,1.98-13.73,2.98-22.91,2.98s-16.77-.98-23.6-2.94c-6.82-1.94-12.13-4.63-15.93-8.04-3.79-3.41-6.42-7.15-7.88-11.25-1.46-4.09-2.2-10.06-2.2-17.86v-30.67c0-9.18,1.63-16.44,4.91-21.74,3.27-5.32,8.63-9.38,16.08-12.21,7.44-2.81,16.01-4.23,25.68-4.23,11.84,0,21.59,1.71,29.29,5.1,7.69,3.41,13.09,7.93,16.18,13.56,3.09,5.63,4.65,13.54,4.65,23.72v13.96ZM176.37,1207.97v-7.7c0-5.43-.39-8.95-1.15-10.53-.76-1.6-2.33-2.38-4.7-2.38-2.92,0-4.73.67-5.43,2.01-.7,1.34-1.04,4.97-1.04,10.89v7.7h12.32Z"/>
    <path class="cls-5" d="M275.35,1170.63l-.73,9.69c3.07-3.87,6.81-6.75,11.23-8.69,4.42-1.92,9.52-2.89,15.29-2.89,7.24,0,13.16,1.29,17.75,3.88,4.59,2.58,7.55,5.85,8.87,9.78,1.33,3.94,1.99,10.49,1.99,19.69v73.69h-42.18v-72.82c0-7.24-.32-11.65-.94-13.23-.63-1.6-2.37-2.38-5.22-2.38-2.99,0-4.87.91-5.64,2.72-.77,1.83-1.15,6.7-1.15,14.63v71.08h-42.18v-105.16h42.92Z"/>
    <path class="cls-5" d="M388.73,1156.62v16.55h11.38v16.64h-11.38v56.27c0,6.92.47,10.78,1.42,11.56.93.8,4.85,1.2,11.74,1.2v16.95h-17.02c-9.61,0-16.46-.31-20.57-.91-4.1-.62-7.72-2.01-10.85-4.21-3.13-2.18-5.08-4.7-5.85-7.51-.76-2.83-1.14-9.47-1.14-19.93v-53.42h-9.08v-16.64h9.08v-16.55h42.28Z"/>
    <path class="cls-5" d="M504.94,1225.08h-54.61v22.74c0,4.76.45,7.82,1.36,9.19.9,1.38,2.64,2.07,5.22,2.07,3.2,0,5.34-.91,6.42-2.74,1.08-1.81,1.62-5.35,1.62-10.58v-13.87h39.99v7.77c0,6.5-.54,11.49-1.63,14.97-1.05,3.48-3.59,7.22-7.55,11.18-3.96,3.96-9,6.93-15.1,8.91-6.08,1.98-13.72,2.98-22.91,2.98s-16.77-.98-23.59-2.94c-6.82-1.94-12.13-4.63-15.93-8.04-3.79-3.41-6.42-7.15-7.88-11.25-1.46-4.09-2.2-10.06-2.2-17.86v-30.67c0-9.18,1.63-16.44,4.91-21.74,3.27-5.32,8.63-9.38,16.08-12.21,7.44-2.81,16.01-4.23,25.68-4.23,11.83,0,21.58,1.71,29.28,5.1,7.69,3.41,13.1,7.93,16.19,13.56,3.09,5.63,4.65,13.54,4.65,23.72v13.96ZM462.65,1207.97v-7.7c0-5.43-.39-8.95-1.15-10.53-.76-1.6-2.33-2.38-4.7-2.38-2.92,0-4.73.67-5.43,2.01-.7,1.34-1.04,4.97-1.04,10.89v7.7h12.32Z"/>
    <path class="cls-5" d="M561.62,1170.63l-.73,9.69c3.07-3.87,6.81-6.75,11.22-8.69,4.43-1.92,9.53-2.89,15.3-2.89,7.24,0,13.16,1.29,17.75,3.88,4.59,2.58,7.55,5.85,8.88,9.78,1.33,3.94,1.98,10.49,1.98,19.69v73.69h-42.18v-72.82c0-7.24-.31-11.65-.93-13.23-.64-1.6-2.38-2.38-5.23-2.38-2.99,0-4.86.91-5.64,2.72-.76,1.83-1.14,6.7-1.14,14.63v71.08h-42.18v-105.16h42.91Z"/>
    <path class="cls-5" d="M668.24,1211.38h-39.57v-7.06c0-8.13,1.23-14.41,3.7-18.82,2.47-4.41,7.42-8.31,14.88-11.69,7.44-3.38,17.12-5.06,29.02-5.06,14.27,0,25.01,1.91,32.25,5.74,7.24,3.83,11.6,8.53,13.05,14.1,1.47,5.57,2.2,17.06,2.2,34.43v52.78h-41.04v-9.37c-2.58,3.76-5.9,6.57-9.97,8.46-4.06,1.87-8.93,2.81-14.56,2.81-7.39,0-14.16-1.58-20.31-4.72-6.17-3.14-9.24-10.02-9.24-20.64v-8.64c0-7.88,1.63-13.23,4.9-16.08,3.27-2.87,11.38-6.19,24.32-10,13.85-4.12,21.27-6.88,22.25-8.31.96-1.43,1.45-4.34,1.45-8.71,0-5.5-.54-9.08-1.62-10.74-1.09-1.67-2.87-2.49-5.37-2.49-2.87,0-4.63.69-5.34,2.09-.69,1.42-1.04,5.05-1.04,10.91v11.02ZM681.59,1225.79c-6.75,3.76-10.67,6.9-11.74,9.44-1.09,2.52-1.62,6.17-1.62,10.93,0,5.45.47,8.97,1.4,10.55.94,1.58,2.81,2.38,5.59,2.38s4.37-.62,5.17-1.87c.8-1.23,1.2-4.5,1.2-9.78v-21.63Z"/>
    <path class="cls-5" d="M780.46,1170.63l-1.67,13.83c6.12-9.89,14.99-15.14,26.63-15.72v37.01c-7.73,0-13.39.78-17.03,2.38-3.61,1.58-5.84,3.77-6.68,6.61-.84,2.83-1.25,9.35-1.25,19.53v41.53h-42.18v-105.16h42.18Z"/>
    <path class="cls-5" d="M906.97,1170.63l-12.05,76.09c-1.91,12.03-3.5,20.26-4.79,24.65-1.29,4.38-3.43,7.99-6.43,10.85-2.98,2.85-7.15,4.96-12.47,6.3-5.32,1.34-13.83,2.01-25.52,2.01h-25.57v-16.81c6.55,0,10.76-.24,12.65-.75,1.89-.51,2.81-1.62,2.81-3.38,0-.83-.87-4.5-2.61-11l-23.09-87.98h38.3l13.85,71,6.77-71h38.15Z"/>
  </g>
  <g>
    <path class="cls-5" d="M61.27,1335.11h-23.79v-6.1c0-2.85-.31-4.67-.92-5.45-.61-.78-1.62-1.16-3.04-1.16-1.54,0-2.7.53-3.49,1.58-.8,1.05-1.19,2.63-1.19,4.77,0,2.74.45,4.81,1.33,6.21.84,1.38,3.26,3.07,7.23,5.03,11.41,5.64,18.59,10.29,21.54,13.92,2.96,3.63,4.45,9.48,4.45,17.53,0,5.86-.83,10.18-2.47,12.96-1.64,2.78-4.82,5.1-9.52,6.99-4.71,1.87-10.18,2.81-16.43,2.81-6.85,0-12.71-1.09-17.55-3.25-4.85-2.16-8.02-4.94-9.52-8.28-1.51-3.36-2.25-8.11-2.25-14.29v-5.39h23.78v10.02c0,3.07.34,5.06,1,5.93.67.89,1.86,1.33,3.56,1.33s2.97-.56,3.8-1.67c.83-1.12,1.24-2.78,1.24-4.99,0-4.85-.79-8.01-2.37-9.49-1.62-1.51-5.62-3.99-11.99-7.48-6.37-3.52-10.59-6.08-12.65-7.68-2.07-1.6-3.78-3.79-5.14-6.61-1.36-2.81-2.04-6.41-2.04-10.76,0-6.32.97-10.91,2.9-13.83,1.92-2.92,5.04-5.19,9.34-6.84,4.3-1.63,9.49-2.45,15.57-2.45,6.65,0,12.32.89,17.01,2.69,4.68,1.8,7.79,4.07,9.31,6.79,1.51,2.72,2.28,7.35,2.28,13.9v3.25Z"/>
    <path class="cls-5" d="M96.62,1316.05v10.62h6.63v10.67h-6.63v36.08c0,4.45.27,6.92.82,7.43.54.51,2.83.76,6.84.76v10.87h-9.92c-5.59,0-9.59-.2-11.98-.58-2.4-.4-4.5-1.29-6.32-2.7-1.83-1.4-2.97-3.01-3.41-4.83-.45-1.8-.67-6.06-.67-12.78v-34.25h-5.29v-10.67h5.29v-10.62h24.65Z"/>
    <path class="cls-5" d="M130.63,1351.17h-23.06v-4.54c0-5.21.72-9.24,2.16-12.07,1.44-2.81,4.33-5.32,8.67-7.5,4.34-2.16,9.98-3.25,16.92-3.25,8.31,0,14.58,1.23,18.79,3.68,4.22,2.47,6.76,5.48,7.61,9.06.85,3.58,1.28,10.93,1.28,22.07v33.85h-23.9v-6.01c-1.51,2.41-3.44,4.21-5.82,5.43-2.37,1.2-5.2,1.8-8.49,1.8-4.3,0-8.24-1-11.83-3.01-3.58-2.01-5.38-6.44-5.38-13.25v-5.54c0-5.05.95-8.49,2.86-10.31,1.91-1.83,6.63-3.97,14.18-6.41,8.07-2.65,12.39-4.43,12.96-5.34.57-.93.85-2.78.85-5.59,0-3.52-.32-5.83-.94-6.9-.63-1.05-1.67-1.6-3.13-1.6-1.67,0-2.7.45-3.1,1.34-.41.91-.61,3.23-.61,6.99v7.08ZM138.41,1360.41c-3.94,2.41-6.22,4.43-6.84,6.04-.64,1.63-.94,3.98-.94,7.03,0,3.48.27,5.74.82,6.75.55,1.01,1.63,1.52,3.26,1.52s2.54-.4,3.01-1.2c.46-.78.7-2.88.7-6.26v-13.89Z"/>
    <path class="cls-5" d="M197.37,1316.05v10.62h6.63v10.67h-6.63v36.08c0,4.45.27,6.92.82,7.43.54.51,2.83.76,6.84.76v10.87h-9.92c-5.59,0-9.59-.2-11.98-.58-2.4-.4-4.5-1.29-6.32-2.7-1.83-1.4-2.97-3.01-3.41-4.83-.44-1.8-.67-6.06-.67-12.78v-34.25h-5.29v-10.67h5.29v-10.62h24.65Z"/>
    <path class="cls-5" d="M265.08,1359.96h-31.82v14.59c0,3.05.26,5.01.79,5.88.53.89,1.54,1.33,3.04,1.33,1.86,0,3.11-.58,3.74-1.74.63-1.18.94-3.43.94-6.79v-8.89h23.31v4.97c0,4.17-.32,7.37-.94,9.6-.64,2.25-2.1,4.63-4.41,7.17-2.31,2.54-5.24,4.45-8.79,5.72-3.55,1.27-8,1.91-13.35,1.91s-9.78-.62-13.76-1.87c-3.98-1.25-7.06-2.98-9.28-5.17-2.2-2.18-3.74-4.59-4.59-7.21-.85-2.63-1.28-6.44-1.28-11.47v-19.66c0-5.9.95-10.55,2.86-13.96,1.91-3.39,5.03-6.01,9.37-7.82,4.34-1.82,9.33-2.72,14.97-2.72,6.9,0,12.58,1.09,17.06,3.29,4.48,2.18,7.62,5.08,9.43,8.69,1.81,3.59,2.71,8.68,2.71,15.21v8.95ZM240.44,1348.98v-4.92c0-3.5-.23-5.75-.67-6.77-.45-1.02-1.36-1.52-2.74-1.52-1.7,0-2.76.43-3.16,1.31-.41.85-.61,3.19-.61,6.99v4.92h7.18Z"/>
    <path class="cls-5" d="M354.69,1310.21v82.28h-25.61v-34.56h-7.67v34.56h-25.61v-82.28h25.61v29.42h7.67v-29.42h25.61Z"/>
    <path class="cls-5" d="M389.54,1310.21v10.73h-25.3v-10.73h25.3ZM389.54,1325.04v67.45h-25.3v-67.45h25.3Z"/>
    <path class="cls-5" d="M454.22,1325.04v51.95c0,7.01-.19,11.54-.58,13.59-.38,2.05-1.75,4.21-4.1,6.5-2.36,2.29-5.63,4.05-9.83,5.25-4.2,1.2-9.48,1.8-15.85,1.8-7.83,0-14.12-1.11-18.87-3.32-4.75-2.21-7.2-6.59-7.36-13.09h23.85c0,2.98,1.3,4.46,3.89,4.46,1.87,0,3.1-.45,3.71-1.36.61-.93.92-2.83.92-5.75v-5.1c-2.12,1.6-4.33,2.81-6.66,3.63-2.33.82-4.78,1.22-7.33,1.22-4.42,0-8.06-.74-10.93-2.23-2.86-1.49-4.81-3.45-5.86-5.86-1.06-2.43-1.59-5.88-1.59-10.34v-24.5c0-6.41,1.38-11,4.14-13.81,2.76-2.81,6.96-4.23,12.6-4.23,3.08,0,5.89.53,8.42,1.58,2.54,1.05,4.8,2.63,6.79,4.74l1.76-5.1h22.88ZM429.58,1342.93c0-3.09-.22-5.05-.64-5.9-.43-.83-1.36-1.27-2.82-1.27s-2.42.49-3.01,1.45c-.59.96-.88,2.87-.88,5.72v22.67c0,3.01.22,4.97.66,5.86.44.91,1.38,1.34,2.8,1.34,1.62,0,2.68-.53,3.16-1.62.49-1.09.74-3.54.74-7.37v-20.89Z"/>
    <path class="cls-5" d="M487.57,1310.21v18.51c2.11-1.63,4.37-2.85,6.84-3.67,2.45-.82,5.08-1.23,7.88-1.23,4.3,0,7.95.93,10.98,2.74,3.01,1.83,4.86,3.94,5.54,6.33.67,2.4,1,6.75,1,13.09v46.5h-24.58v-47.46c0-3.94-.24-6.46-.71-7.57-.45-1.12-1.51-1.69-3.12-1.69-1.51,0-2.52.58-3.05,1.72-.53,1.16-.78,3.45-.78,6.86v48.13h-24.59v-82.28h24.59Z"/>
    <path class="cls-5" d="M605.22,1335.11h-23.78v-6.1c0-2.85-.31-4.67-.91-5.45-.62-.78-1.63-1.16-3.05-1.16-1.54,0-2.7.53-3.5,1.58-.78,1.05-1.18,2.63-1.18,4.77,0,2.74.44,4.81,1.33,6.21.85,1.38,3.27,3.07,7.24,5.03,11.4,5.64,18.59,10.29,21.54,13.92,2.96,3.63,4.45,9.48,4.45,17.53,0,5.86-.82,10.18-2.47,12.96-1.63,2.78-4.81,5.1-9.53,6.99-4.7,1.87-10.16,2.81-16.43,2.81-6.84,0-12.71-1.09-17.55-3.25-4.85-2.16-8.02-4.94-9.51-8.28-1.51-3.36-2.25-8.11-2.25-14.29v-5.39h23.78v10.02c0,3.07.34,5.06,1.01,5.93.67.89,1.85,1.33,3.56,1.33s2.96-.56,3.79-1.67c.83-1.12,1.25-2.78,1.25-4.99,0-4.85-.8-8.01-2.38-9.49-1.62-1.51-5.61-3.99-11.98-7.48-6.37-3.52-10.58-6.08-12.65-7.68-2.07-1.6-3.79-3.79-5.14-6.61-1.36-2.81-2.05-6.41-2.05-10.76,0-6.32.96-10.91,2.89-13.83,1.94-2.92,5.04-5.19,9.35-6.84,4.3-1.63,9.49-2.45,15.57-2.45,6.66,0,12.32.89,17.01,2.69,4.68,1.8,7.79,4.07,9.31,6.79,1.52,2.72,2.27,7.35,2.27,13.9v3.25Z"/>
    <path class="cls-5" d="M669,1350.5h-23.18v-7.77c0-2.72-.27-4.56-.8-5.52-.53-.96-1.51-1.45-2.92-1.45s-2.38.43-2.85,1.27c-.49.85-.74,2.74-.74,5.7v31.82c0,2.4.36,4.21,1.11,5.41.72,1.2,1.8,1.8,3.21,1.8,1.67,0,2.8-.62,3.38-1.87.6-1.25.89-3.63.89-7.11v-8.04h21.91c-.05,5.39-.27,9.44-.71,12.12-.42,2.69-1.78,5.46-4.08,8.28-2.29,2.83-5.28,4.97-8.97,6.41-3.69,1.45-8.26,2.16-13.69,2.16-6.93,0-12.43-.98-16.48-2.98-4.06-1.98-6.93-4.76-8.62-8.33-1.69-3.58-2.52-8.64-2.52-15.21v-19.17c0-5.72.69-10.04,2.07-12.96,1.38-2.92,4.32-5.52,8.82-7.8,4.5-2.29,9.98-3.43,16.42-3.43s11.89,1.14,16.43,3.41c4.54,2.27,7.57,5.14,9.08,8.58,1.49,3.45,2.25,8.35,2.25,14.68Z"/>
    <path class="cls-5" d="M700.89,1310.21v18.51c2.11-1.63,4.38-2.85,6.84-3.67,2.45-.82,5.08-1.23,7.88-1.23,4.3,0,7.95.93,10.98,2.74,3.01,1.83,4.87,3.94,5.54,6.33.67,2.4,1,6.75,1,13.09v46.5h-24.58v-47.46c0-3.94-.24-6.46-.71-7.57-.46-1.12-1.51-1.69-3.12-1.69-1.51,0-2.52.58-3.05,1.72-.53,1.16-.78,3.45-.78,6.86v48.13h-24.59v-82.28h24.59Z"/>
    <path class="cls-5" d="M797.19,1348.72v16.52c0,6.06-.36,10.51-1.09,13.34-.75,2.83-2.3,5.48-4.68,7.93-2.4,2.45-5.48,4.27-9.22,5.45-3.76,1.16-8.06,1.74-12.94,1.74-5.43,0-10.04-.49-13.79-1.49-3.78-1-6.72-2.52-8.8-4.54-2.09-2.01-3.58-4.45-4.46-7.31-.89-2.87-1.34-7.15-1.34-12.89v-17.28c0-6.26.82-11.16,2.43-14.68,1.63-3.52,4.54-6.35,8.77-8.48,4.21-2.14,9.6-3.21,16.17-3.21,5.52,0,10.25.69,14.21,2.07,3.96,1.36,7.01,3.16,9.17,5.35,2.14,2.2,3.61,4.46,4.41,6.81.78,2.34,1.18,5.9,1.18,10.67ZM772.62,1343.64c0-3.45-.22-5.63-.67-6.53-.45-.89-1.4-1.34-2.87-1.34s-2.43.45-2.9,1.34c-.49.91-.74,3.09-.74,6.53v30.44c0,3.19.25,5.26.74,6.23.47.98,1.43,1.45,2.85,1.45s2.43-.44,2.89-1.33c.47-.87.71-2.78.71-5.68v-31.11Z"/>
    <path class="cls-5" d="M860.88,1348.72v16.52c0,6.06-.36,10.51-1.09,13.34-.74,2.83-2.3,5.48-4.68,7.93-2.4,2.45-5.48,4.27-9.22,5.45-3.76,1.16-8.06,1.74-12.94,1.74-5.43,0-10.04-.49-13.79-1.49-3.77-1-6.72-2.52-8.8-4.54-2.09-2.01-3.58-4.45-4.47-7.31-.89-2.87-1.34-7.15-1.34-12.89v-17.28c0-6.26.82-11.16,2.43-14.68,1.63-3.52,4.54-6.35,8.77-8.48,4.21-2.14,9.6-3.21,16.17-3.21,5.52,0,10.26.69,14.21,2.07,3.96,1.36,7,3.16,9.16,5.35,2.14,2.2,3.61,4.46,4.41,6.81.78,2.34,1.18,5.9,1.18,10.67ZM836.31,1343.64c0-3.45-.22-5.63-.67-6.53-.45-.89-1.4-1.34-2.87-1.34s-2.43.45-2.9,1.34c-.49.91-.75,3.09-.75,6.53v30.44c0,3.19.25,5.26.75,6.23.47.98,1.43,1.45,2.85,1.45s2.43-.44,2.89-1.33c.47-.87.71-2.78.71-5.68v-31.11Z"/>
    <path class="cls-5" d="M894.28,1310.21v82.28h-25.32v-82.28h25.32Z"/>
  </g>
  <g>
    <path class="cls-5" d="M900.52,50.21l.92,51.08-5.98.05c-92.38,19.17-116.75,106.48-122.39,212.43-27.48-20.97-60.22-35.9-102.3-38.92-48.21-3.45-94.08,13.57-122.29,38.92-28.6,25.59-44.46,66.11-42.32,112.32,2.43,50.54,19.85,97.49,52.34,122.34,10.17,3.21,16.25,10.46,26.61,13.33,12.89-64.7,72.68-120.3,141.31-129.01,26.17-3.31,52.63.54,70.05,8.9,10.85,5.3,23.79,14.01,33.37,22.23,11.53,9.97,21.7,23.59,26.71,37.85-19.7-11.97-37.07-23.35-61.15-27.83-4.18-.78-10.46-1.31-15.62-1.12-47.19,1.85-76.86,45.29-92.28,82.31-14.45,34.73-11.72,71.12,8.9,95.64.88,1.12,5.55,5.79,6.62,6.71,34.44,29.43,97.53,28.85,131.29-5.59,10.22-10.46,18.73-27.48,26.66-38.92,2.92-4.28,6.66-10.26,10.02-10.02-16.69,39.6-34.25,78.56-63.43,105.66-7,6.57-15.81,10.36-22.18,17.8,1.51,6.37,15.71,35.37,24.47,36.68,2.97-6.28-.88-19.36,2.19-25.49,9.68,19.46,20.97,44.56,29.62,73.7,7.98,26.66,12.31,57.35,13.72,86.39,1.31,25.15-1.26,51.17-5.5,75.64-3.65,20.82-9.15,47.82-17.85,63.38-8.03,14.5-37.16,31.77-53.36,13.33-.58-6.13,6.71-9.05,3.36-14.45-14.11-11.33-44.02-1.7-57.89,0,34.64-17.85,52.15-45.19,66.74-90.09,12.5-38.33,20.09-80.7,16.69-122.34-2.87-36-13.52-69.71-25.54-96.76-20.97,11.19-48.16,23.06-75.59,23.35-27.34.29-54.53-11.09-67.91-23.35-25.1-23.01-42.42-58.91-50.01-96.76-14.01-4.67-29.19-7.88-42.32-13.33-7.73-3.26-14.3-10.26-22.18-10.02,3.89,19.41,7.54,39.16,8.9,61.2-6.76,7-10.02,27.97-21.11,30.01-5.35.92-13.67-3.16-17.8-7.78,4.86-2.82,9.29-4.43,12.16-10.02,4.77-9.29,4.57-24.61,5.64-38.92.97-14.84,1.41-30.55,0-43.39-44.95-30.4-79.63-70.97-84.55-141.27-8.76-3.5-18.34-5.93-26.71-9.97-9.58-4.62-16.64-13.23-25.64-14.5-.68,7.59-2.14,15.71-3.26,23.4-1.31,8.12-1.12,16.69-4.48,23.35-.92-2.82,2.19-9.58-2.24-8.9-10.02,2.14-18.53,11.82-24.47,14.45,14.16-14.79,19.41-38.48,24.47-62.27-13.96-18.34-26.66-37.8-27.83-68.98-28.36-.63-55.16-.63-73.36-11.09-7.59-4.38-11.77-12.4-16.73-17.8-.97-1.12-3.41.19-4.38-1.12-1.99-2.58,1.75-3.45-1.17-5.59-5.55,3.6-18.24,5.4-22.18-1.07,7.35-2.24,15.66-3.55,18.83-10.02-7.69-45.78,11.87-95.88,44.51-114.56,12.06-6.86,29.48-10.26,45.63-7.78-7.83-35.66.19-72.43,17.76-94.52,16.59-20.77,48.01-34.73,82.36-25.59-40.81,4.77-77.1,24.42-81.19,66.74-2.43,25.25.54,50.69,8.9,66.69,3.41,6.62,12.16,10.8,13.28,17.8-7.59-1.95-12.26-2.53-17.8-5.55-8.12-4.48-12.75-15.42-19.99-16.69-5.55-.97-22.43,4.91-28.94,7.78-21.84,9.73-40.76,32.45-43.34,58.96-3.26,32.93,12.55,52.44,31.18,62.27,13.38,7.05,29.58,10.6,47.82,14.45,8.12-67.13,45-105.51,118.99-106.78-25.83-57.45-6.32-125.31,37.85-156.78,20.19-14.45,48.21-28.07,76.66-27.83,40.91.34,68.25,27.48,85.71,52.29,6.42,9.19,12.45,19.8,14.45,30.01-8.46-14.98-15.18-27.83-26.75-37.8-7.88-6.81-18.87-13.72-27.78-16.69-39.94-13.38-88.1,10.36-112.32,33.37-32.15,30.5-42.56,77.39-32.3,124.53.05,3.31,8.32-1.56,6.76,3.36-53.51,4.86-99.48,24.32-109.01,72.29-10.65,53.22,22.62,83.09,60.03,97.87,17.03-77.15,66.55-144.28,141.22-167.92,36.73-11.63,84.84-9.19,119.03,2.19,20.58,6.91,38.19,18.49,55.65,27.83-12.65-118.4,54.19-181.11,135.62-207.96,4.23-1.41,15.81-2.97,18.44-7.78Z"/>
    <path class="cls-5" d="M225.91,134.71c-4.82-33.47,17.03-60.13,46.75-57.84-26.56,5.93-43.1,33.13-36.73,65.62.83,4.23,4.04,9.24,4.48,14.45-8.51-4.13-13.13-13.04-14.5-22.23Z"/>
    <path class="cls-5" d="M245.9,219.25c.15,6.03-10.36,12.45-18.87,13.33-19.17,1.99-41.06-11.04-43.39-32.25-2.29-21.89,11.48-49.42,36.78-48.94-1.75,5.59-7.69,5.01-11.19,7.78-9.24,7.3-15.66,20.53-13.28,38.92,2.87,23.16,25.1,28.07,49.96,21.16Z"/>
    <path class="cls-5" d="M170.31,114.66c-14.74-6.66-6.13-36.44,12.26-28.9-7.15,3.36-14.69,5.98-15.62,14.5-.54,4.77,3.6,8.56,3.36,14.4Z"/>
    <path class="cls-5" d="M165.83,179.22c4.09,5.55,4.43,19.56,2.29,27.78-6.57-1.31-7.59,2.77-13.38,2.24,6.52-7.2,13.52-13.91,11.09-30.01Z"/>
    <path class="cls-5" d="M165.83,159.17c-18.05,2.09-37.26-2.82-38.87-18.92-1.95-19.12,15.37-35.32,36.68-26.66-17.51-3.16-29.82,8.27-30.06,22.23-.19,17.41,16.3,19.8,32.25,23.35Z"/>
    <path class="cls-5" d="M118.02,133.59c.83,8.32-6.91,20.38-14.45,16.69.83-6.28,8.22-5.89,10.02-11.09-1.12-4.57,1.85-10.75,0-12.26,2.82-1.65,4.28,4.86,4.43,6.66Z"/>
    <path class="cls-5" d="M109.11,94.67c-6.08.39-7.69-10.56-2.14-12.26,4.48,2.33-3.02,8.08,2.14,12.26Z"/>
    <path class="cls-5" d="M106.97,113.59c-12.31,5.89-20.43-17.9-7.83-21.16,5.11,2.38-2.33,6.91-2.19,11.14,1.36,5.25,4.77,8.51,10.02,10.02Z"/>
  </g>
  <line class="cls-2" x1="15.54" y1="51.08" x2="742.34" y2="1113.29"/>
  <polygon class="cls-7" points="12.81 68.71 13.4 1113.42 734.9 1113.42 12.81 68.71"/>
  <line class="cls-1" x1="14.24" y1="63.44" x2="742.34" y2="1113.29"/>
  <rect class="cls-6" x="17.14" y="972.03" width="169.54" height="136.62"/>
  <rect class="cls-3" x="13.5" y="13.5" width="893.09" height="1099.92"/>
</svg>