<?xml version="1.0" encoding="UTF-8"?>
<svg id="Layer_1" data-name="Layer 1" xmlns="http://www.w3.org/2000/svg" viewBox="0 0 203.5 233.9">
  <defs>
    <style>
      .cls-1 {
        fill: #ffb448;
      }
    </style>
  </defs>
  <path class="cls-1" d="M101.8,157.6v76.3c17.1,0,33.3-4.3,47.5-11.8l-3-1.5c-17.8-9-44.5-29.8-44.5-63Z"/>
  <path class="cls-1" d="M57.4,178.6c-11.5,5.9-24.6,10-38.8,12,9.2,13.1,21.5,24,35.8,31.6,1-.5,47.5-20.5,47.5-64.6v-42c-.1,25.6-17.3,49.1-44.5,63Z"/>
  <path class="cls-1" d="M101.8,73.5v42.1c0,27.1,19,50.1,44.5,63.1,11.5,5.9,24.6,10,38.8,12,8.4-12,14.3-25.8,16.9-40.8-20.6-.2-39.8-5.1-55.7-13.2-14.4-7.5-44.5-27.8-44.5-63.2Z"/>
  <path class="cls-1" d="M100.8,0C64.1.1,29.6,7.8.1,20.9v44.7c21.2,0,41-4.9,57.3-13.2C92.9,34.3,99.5,7.4,100.8,0Z"/>
  <path class="cls-1" d="M101.8,0v31.4h0c0,33.7-27.3,54.3-44.5,63.1-16.3,8.3-36,13.2-57.3,13.2v24.4c0,6,.5,11.9,1.5,17.6,20.6-.2,39.8-5.1,55.7-13.2,14.4-7.4,44.5-27.6,44.5-63.1V31.4c0,33.7,27.2,54.3,44.5,63.1,16.3,8.3,36,13.2,57.3,13.2V20.9C173.8,7.6,139,0,101.8,0Z"/>
</svg>